<?xml version="1.0" encoding="UTF-8"?>
<svg width="94px" height="94px" viewBox="0 0 94 94" version="1.1" xmlns="http://www.w3.org/2000/svg" xmlns:xlink="http://www.w3.org/1999/xlink">
    <!-- Generator: Sketch 52.6 (67491) - http://www.bohemiancoding.com/sketch -->
    <title>Group 61</title>
    <desc>Created with Sketch.</desc>
    <g id="Page-1" stroke="none" stroke-width="1" fill="none" fill-rule="evenodd">
        <g id="Group-61" transform="translate(3.000000, 3.000000)" fill-rule="nonzero">
            <circle id="Oval-Copy-5" stroke="#C14184" stroke-width="5" cx="44" cy="44" r="44"></circle>
            <path d="M36.6258143,42.5333333 L45.9188701,60.4666667 C46.0848176,60.7333333 45.9852491,61 45.7197332,61 L39.9447628,61 C39.5796785,61 39.413731,60.9 39.2477836,60.5666667 C37.1236565,56.1666667 34.96634,51.7666667 32.7426445,47.0333333 L32.6762655,47.0333333 C30.6848964,51.5 28.4943904,56.2 26.3702633,60.6 C26.2043159,60.8666667 26.0383685,60.9666667 25.7728526,60.9666667 L20.2965875,60.9666667 C19.9646927,60.9666667 19.9315032,60.7 20.0974506,60.5 L29.1913696,43.1 L20.396156,25.5 C20.1970191,25.2333333 20.396156,25.0333333 20.5952929,25.0333333 L26.3038843,25.0333333 C26.6357792,25.0333333 26.7685371,25.1 26.9012951,25.4 C28.9922327,29.8 31.1163597,34.3333333 33.1077288,38.7666667 L33.1741078,38.7666667 C35.0990979,34.3666667 37.223225,29.8 39.2809731,25.4333333 C39.4469205,25.1666667 39.546489,25 39.8783838,25 L45.221891,25 C45.4874068,25 45.5869753,25.2 45.4210279,25.4666667 L36.6258143,42.5333333 Z M47,47.6604521 C47,39.9862001 52.1179245,33.9917201 60.240566,33.9917201 C60.9339623,33.9917201 61.2971698,33.9917201 61.9575472,34.0575935 L61.9575472,25.329367 C61.9575472,25.1317468 62.1226415,25 62.2877358,25 L67.504717,25 C67.7688679,25 67.8349057,25.0988101 67.8349057,25.2634936 L67.8349057,55.4993875 C67.8349057,56.3886785 67.8349057,57.5085264 68,58.7271845 C68,58.9248047 67.9339623,58.9906781 67.7358491,59.0894882 C64.9622642,60.4069564 62.0566038,60.999817 59.2830189,60.999817 C52.1179245,61.0327537 47,56.6192354 47,47.6604521 Z M62,39.3488372 C61.5367647,39.1395349 60.875,39 60.0808824,39 C55.9117647,39 53,42.3837209 53,48 C53,54.4186047 55.9779412,57 59.7169118,57 C60.5110294,57 61.3713235,56.8953488 62,56.6162791 L62,39.3488372 Z" id="Shape" fill="#C14184"></path>
        </g>
    </g>
</svg>