<?xml version="1.0" encoding="UTF-8"?>
<svg width="94px" height="94px" viewBox="0 0 94 94" version="1.1" xmlns="http://www.w3.org/2000/svg" xmlns:xlink="http://www.w3.org/1999/xlink">
    <!-- Generator: Sketch 52.6 (67491) - http://www.bohemiancoding.com/sketch -->
    <title>Group 58 Copy 2</title>
    <desc>Created with Sketch.</desc>
    <defs>
        <path d="M20.7189851,20.9230698 L17.924597,12.2254884 C17.2389851,10.076907 16.6598507,7.66674419 16.1326567,5.624 L16.0270448,5.624 C15.4998507,7.66674419 14.9726567,10.1293953 14.3407164,12.2254884 L11.6,20.9230698 L20.7189851,20.9230698 Z M10.5456119,25.7958837 L7.4880597,35.8022326 L0.793820896,35.8022326 L12.1782687,0.488744186 L20.4549552,0.488744186 L31.9995522,35.8022326 L25.0404179,35.8022326 L21.8253134,25.7958837 L10.5456119,25.7958837 Z" id="path-1"></path>
        <linearGradient x1="0.815579228%" y1="50.0009747%" x2="181.856414%" y2="50.0009747%" id="linearGradient-3">
            <stop stop-color="#A48BB4" offset="0%"></stop>
            <stop stop-color="#8A72A6" offset="100%"></stop>
        </linearGradient>
        <path d="M18.1115821,10.8814419 C18.1635224,8.52376744 17.11,4.64651163 12.7868358,4.64651163 C8.78137313,4.64651163 7.0941791,8.26132558 6.8318806,10.8814419 L18.1115821,10.8814419 Z M6.8318806,15.3876977 C6.98943284,19.9989302 10.6261194,21.9883256 14.737194,21.9883256 C17.7419403,21.9883256 19.9035224,21.5701395 21.8538806,20.8361628 L22.8035224,25.2907907 C20.5882687,26.1805116 17.5324478,26.9144884 13.8403582,26.9144884 C5.51259701,26.9144884 0.611164179,21.780093 0.611164179,13.973093 C0.611164179,6.90006977 4.93346269,0.245232558 13.1564776,0.245232558 C21.5370448,0.245232558 24.2249552,7.05753488 24.2249552,12.6634651 C24.2249552,13.8681163 24.120209,14.8103256 24.014597,15.3876977 L6.8318806,15.3876977 Z" id="path-4"></path>
        <linearGradient x1="-141.117384%" y1="49.9993547%" x2="98.1233961%" y2="49.9993547%" id="linearGradient-6">
            <stop stop-color="#A48BB4" offset="0%"></stop>
            <stop stop-color="#8A72A6" offset="100%"></stop>
        </linearGradient>
    </defs>
    <g id="Page-1" stroke="none" stroke-width="1" fill="none" fill-rule="evenodd">
        <g id="Group-58-Copy-2" transform="translate(3.000000, 3.000000)">
            <g id="Group-9" transform="translate(15.000000, 25.000000)">
                <g id="Group-39">
                    <mask id="mask-2" fill="white">
                        <use xlink:href="#path-1"></use>
                    </mask>
                    <g id="Clip-38"></g>
                    <path d="M20.7189851,20.9230698 L17.924597,12.2254884 C17.2389851,10.076907 16.6598507,7.66674419 16.1326567,5.624 L16.0270448,5.624 C15.4998507,7.66674419 14.9726567,10.1293953 14.3407164,12.2254884 L11.6,20.9230698 L20.7189851,20.9230698 Z M10.5456119,25.7958837 L7.4880597,35.8022326 L0.793820896,35.8022326 L12.1782687,0.488744186 L20.4549552,0.488744186 L31.9995522,35.8022326 L25.0404179,35.8022326 L21.8253134,25.7958837 L10.5456119,25.7958837 Z" id="Fill-37" fill="url(#linearGradient-3)" mask="url(#mask-2)"></path>
                </g>
                <g id="Group-43" transform="translate(33.761194, 9.465116)">
                    <mask id="mask-5" fill="white">
                        <use xlink:href="#path-4"></use>
                    </mask>
                    <g id="Clip-42"></g>
                    <path d="M18.1115821,10.8814419 C18.1635224,8.52376744 17.11,4.64651163 12.7868358,4.64651163 C8.78137313,4.64651163 7.0941791,8.26132558 6.8318806,10.8814419 L18.1115821,10.8814419 Z M6.8318806,15.3876977 C6.98943284,19.9989302 10.6261194,21.9883256 14.737194,21.9883256 C17.7419403,21.9883256 19.9035224,21.5701395 21.8538806,20.8361628 L22.8035224,25.2907907 C20.5882687,26.1805116 17.5324478,26.9144884 13.8403582,26.9144884 C5.51259701,26.9144884 0.611164179,21.780093 0.611164179,13.973093 C0.611164179,6.90006977 4.93346269,0.245232558 13.1564776,0.245232558 C21.5370448,0.245232558 24.2249552,7.05753488 24.2249552,12.6634651 C24.2249552,13.8681163 24.120209,14.8103256 24.014597,15.3876977 L6.8318806,15.3876977 Z" id="Fill-41" fill="url(#linearGradient-6)" mask="url(#mask-5)"></path>
                </g>
            </g>
            <circle id="Oval-Copy-2" stroke="#937BAB" stroke-width="5" fill-rule="nonzero" cx="44" cy="44" r="44"></circle>
        </g>
    </g>
</svg>