<?xml version="1.0" encoding="UTF-8"?>
<svg width="94px" height="94px" viewBox="0 0 94 94" version="1.1" xmlns="http://www.w3.org/2000/svg" xmlns:xlink="http://www.w3.org/1999/xlink">
    <!-- Generator: Sketch 52.6 (67491) - http://www.bohemiancoding.com/sketch -->
    <title>Group 46 Copy</title>
    <desc>Created with Sketch.</desc>
    <defs>
        <path d="M20.425971,20.4745714 L17.6675072,11.8088571 C16.9894348,9.66942857 16.4173913,7.26942857 15.8957971,5.23457143 L15.7923333,5.23457143 C15.2715942,7.26942857 14.7517101,9.72257143 14.1266522,11.8088571 L11.4186377,20.4745714 L20.425971,20.4745714 Z M10.3780145,25.3268571 L7.35704348,35.2962857 L0.744768116,35.2962857 L11.9906812,0.119142857 L20.166029,0.119142857 L31.5675652,35.2962857 L24.6962029,35.2962857 L21.5196087,25.3268571 L10.3780145,25.3268571 Z" id="path-1"></path>
        <linearGradient x1="-0.995921991%" y1="50%" x2="172.717841%" y2="50%" id="linearGradient-3">
            <stop stop-color="#77C5BF" offset="0%"></stop>
            <stop stop-color="#60BDB1" offset="100%"></stop>
        </linearGradient>
        <path d="M23.1177391,18.2477143 C23.1177391,21.2751429 23.2212029,23.7797143 23.3246667,25.8677143 L17.7025652,25.8677143 L17.3896087,22.0054286 L17.2852899,22.0054286 C16.1925072,23.832 13.6931304,26.4411429 9.16295652,26.4411429 C4.53017391,26.4411429 0.312101449,23.676 0.312101449,15.3771429 L0.312101449,0.450857143 L6.71573913,0.450857143 L6.71573913,14.2825714 C6.71573913,18.5091429 8.07017391,21.222 11.4545507,21.222 C14.0052319,21.222 15.6717681,19.3971429 16.3481304,17.7788571 C16.555913,17.2037143 16.7123913,16.5248571 16.7123913,15.7937143 L16.7123913,0.450857143 L23.1177391,0.450857143 L23.1177391,18.2477143" id="path-4"></path>
        <linearGradient x1="-151.792814%" y1="50%" x2="80.8728124%" y2="50%" id="linearGradient-6">
            <stop stop-color="#77C5BF" offset="0%"></stop>
            <stop stop-color="#60BDB1" offset="100%"></stop>
        </linearGradient>
    </defs>
    <g id="Page-1" stroke="none" stroke-width="1" fill="none" fill-rule="evenodd">
        <g id="Group-46-Copy" transform="translate(3.000000, 3.000000)">
            <g id="Group-20" transform="translate(14.000000, 26.000000)">
                <g id="Group-248">
                    <mask id="mask-2" fill="white">
                        <use xlink:href="#path-1"></use>
                    </mask>
                    <g id="Clip-247"></g>
                    <path d="M20.425971,20.4745714 L17.6675072,11.8088571 C16.9894348,9.66942857 16.4173913,7.26942857 15.8957971,5.23457143 L15.7923333,5.23457143 C15.2715942,7.26942857 14.7517101,9.72257143 14.1266522,11.8088571 L11.4186377,20.4745714 L20.425971,20.4745714 Z M10.3780145,25.3268571 L7.35704348,35.2962857 L0.744768116,35.2962857 L11.9906812,0.119142857 L20.166029,0.119142857 L31.5675652,35.2962857 L24.6962029,35.2962857 L21.5196087,25.3268571 L10.3780145,25.3268571 Z" id="Fill-246" fill="url(#linearGradient-3)" mask="url(#mask-2)"></path>
                </g>
                <g id="Group-252" transform="translate(35.057971, 9.428571)">
                    <mask id="mask-5" fill="white">
                        <use xlink:href="#path-4"></use>
                    </mask>
                    <g id="Clip-251"></g>
                    <path d="M23.1177391,18.2477143 C23.1177391,21.2751429 23.2212029,23.7797143 23.3246667,25.8677143 L17.7025652,25.8677143 L17.3896087,22.0054286 L17.2852899,22.0054286 C16.1925072,23.832 13.6931304,26.4411429 9.16295652,26.4411429 C4.53017391,26.4411429 0.312101449,23.676 0.312101449,15.3771429 L0.312101449,0.450857143 L6.71573913,0.450857143 L6.71573913,14.2825714 C6.71573913,18.5091429 8.07017391,21.222 11.4545507,21.222 C14.0052319,21.222 15.6717681,19.3971429 16.3481304,17.7788571 C16.555913,17.2037143 16.7123913,16.5248571 16.7123913,15.7937143 L16.7123913,0.450857143 L23.1177391,0.450857143 L23.1177391,18.2477143" id="Fill-250" fill="url(#linearGradient-6)" mask="url(#mask-5)"></path>
                </g>
            </g>
            <circle id="Oval-Copy-11" stroke="#6DC2B9" stroke-width="5" fill-rule="nonzero" cx="44" cy="44" r="44"></circle>
        </g>
    </g>
</svg>