<?xml version="1.0" encoding="UTF-8"?>
<svg width="94px" height="94px" viewBox="0 0 94 94" version="1.1" xmlns="http://www.w3.org/2000/svg" xmlns:xlink="http://www.w3.org/1999/xlink">
    <!-- Generator: Sketch 52.6 (67491) - http://www.bohemiancoding.com/sketch -->
    <title>Group 49 Copy</title>
    <desc>Created with Sketch.</desc>
    <defs>
        <path d="M6.68336538,31.216814 C7.52625,31.3734186 8.63394231,31.3734186 10.1085577,31.3734186 C14.2710577,31.3734186 17.9593269,29.8022093 17.9593269,25.4534186 C17.9593269,21.3670698 14.3757692,19.6900233 9.89740385,19.6900233 L6.68336538,19.6900233 L6.68336538,31.216814 Z M6.68336538,14.9746744 L10.0038462,14.9746744 C14.4813462,14.9746744 17.0108654,12.8785814 17.0108654,9.89276744 C17.0108654,6.59116279 14.4813462,5.07244186 10.3716346,5.07244186 C8.47471154,5.07244186 7.36875,5.17655814 6.68336538,5.33402326 L6.68336538,14.9746744 Z M0.253557692,1.03772093 C2.30971154,0.618674419 6.04990385,0.304604651 9.68625,0.304604651 C14.4813462,0.304604651 17.4323077,0.880255814 19.8553846,2.55816279 C22.0690385,3.86693023 23.5453846,6.17211628 23.5453846,9.1587907 C23.5453846,12.4070465 21.4909615,15.3937209 17.6425962,16.8083256 L17.6425962,16.9133023 C21.3853846,17.8563721 24.8097115,20.7905581 24.8097115,25.6633721 C24.8097115,28.8066512 23.4389423,31.2693023 21.3853846,32.9463488 C18.855,35.1465581 14.6925,36.247093 8.21076923,36.247093 C4.62807692,36.247093 1.88826923,35.9846512 0.253557692,35.7755581 L0.253557692,1.03772093 Z" id="path-1"></path>
        <linearGradient x1="-0.764730758%" y1="49.998803%" x2="179.789259%" y2="49.998803%" id="linearGradient-3">
            <stop stop-color="#DCAF40" offset="0%"></stop>
            <stop stop-color="#C5A03C" offset="100%"></stop>
        </linearGradient>
        <path d="M0.919903846,9.12523256 C0.919903846,5.66702326 0.867115385,3.20437209 0.70875,0.899186047 L6.34759615,0.899186047 L6.55875,5.77113953 L6.76903846,5.77113953 C8.03336538,2.15632558 11.03625,0.322674419 13.7777885,0.322674419 C14.4095192,0.322674419 14.7781731,0.375162791 15.3069231,0.47927907 L15.3069231,6.55760465 C14.7781731,6.45262791 14.1992308,6.34765116 13.4082692,6.34765116 C10.2989423,6.34765116 8.19259615,8.33876744 7.61278846,11.2204651 C7.50721154,11.7969767 7.40163462,12.4784651 7.40163462,13.2115814 L7.40163462,26.4154186 L0.919903846,26.4154186 L0.919903846,9.12523256" id="path-4"></path>
        <linearGradient x1="-205.963602%" y1="50%" x2="97.7645385%" y2="50%" id="linearGradient-6">
            <stop stop-color="#DCAF40" offset="0%"></stop>
            <stop stop-color="#C5A03C" offset="100%"></stop>
        </linearGradient>
    </defs>
    <g id="Page-1" stroke="none" stroke-width="1" fill="none" fill-rule="evenodd">
        <g id="Group-49-Copy" transform="translate(3.000000, 3.000000)">
            <g id="Group-17" transform="translate(21.000000, 25.000000)">
                <g id="Group-145">
                    <mask id="mask-2" fill="white">
                        <use xlink:href="#path-1"></use>
                    </mask>
                    <g id="Clip-144"></g>
                    <path d="M6.68336538,31.216814 C7.52625,31.3734186 8.63394231,31.3734186 10.1085577,31.3734186 C14.2710577,31.3734186 17.9593269,29.8022093 17.9593269,25.4534186 C17.9593269,21.3670698 14.3757692,19.6900233 9.89740385,19.6900233 L6.68336538,19.6900233 L6.68336538,31.216814 Z M6.68336538,14.9746744 L10.0038462,14.9746744 C14.4813462,14.9746744 17.0108654,12.8785814 17.0108654,9.89276744 C17.0108654,6.59116279 14.4813462,5.07244186 10.3716346,5.07244186 C8.47471154,5.07244186 7.36875,5.17655814 6.68336538,5.33402326 L6.68336538,14.9746744 Z M0.253557692,1.03772093 C2.30971154,0.618674419 6.04990385,0.304604651 9.68625,0.304604651 C14.4813462,0.304604651 17.4323077,0.880255814 19.8553846,2.55816279 C22.0690385,3.86693023 23.5453846,6.17211628 23.5453846,9.1587907 C23.5453846,12.4070465 21.4909615,15.3937209 17.6425962,16.8083256 L17.6425962,16.9133023 C21.3853846,17.8563721 24.8097115,20.7905581 24.8097115,25.6633721 C24.8097115,28.8066512 23.4389423,31.2693023 21.3853846,32.9463488 C18.855,35.1465581 14.6925,36.247093 8.21076923,36.247093 C4.62807692,36.247093 1.88826923,35.9846512 0.253557692,35.7755581 L0.253557692,1.03772093 Z" id="Fill-143" fill="url(#linearGradient-3)" mask="url(#mask-2)"></path>
                </g>
                <g id="Group-150" transform="translate(29.423077, 9.465116)">
                    <mask id="mask-5" fill="white">
                        <use xlink:href="#path-4"></use>
                    </mask>
                    <g id="Clip-149"></g>
                    <path d="M0.919903846,9.12523256 C0.919903846,5.66702326 0.867115385,3.20437209 0.70875,0.899186047 L6.34759615,0.899186047 L6.55875,5.77113953 L6.76903846,5.77113953 C8.03336538,2.15632558 11.03625,0.322674419 13.7777885,0.322674419 C14.4095192,0.322674419 14.7781731,0.375162791 15.3069231,0.47927907 L15.3069231,6.55760465 C14.7781731,6.45262791 14.1992308,6.34765116 13.4082692,6.34765116 C10.2989423,6.34765116 8.19259615,8.33876744 7.61278846,11.2204651 C7.50721154,11.7969767 7.40163462,12.4784651 7.40163462,13.2115814 L7.40163462,26.4154186 L0.919903846,26.4154186 L0.919903846,9.12523256" id="Fill-148" fill="url(#linearGradient-6)" mask="url(#mask-5)"></path>
                </g>
            </g>
            <circle id="Oval-Copy-10" stroke="#D3A93E" stroke-width="5" fill-rule="nonzero" cx="44" cy="44" r="44"></circle>
        </g>
    </g>
</svg>