<?xml version="1.0" encoding="UTF-8"?>
<svg width="94px" height="94px" viewBox="0 0 94 94" version="1.1" xmlns="http://www.w3.org/2000/svg" xmlns:xlink="http://www.w3.org/1999/xlink">
    <!-- Generator: Sketch 52.6 (67491) - http://www.bohemiancoding.com/sketch -->
    <title>Group 47 Copy</title>
    <desc>Created with Sketch.</desc>
    <defs>
        <path d="M6.34485915,29.7704878 C7.13270423,29.9215854 8.33723944,29.9215854 9.49709859,29.9215854 C16.9133239,29.9736585 21.316493,25.4962195 21.316493,16.7957317 C21.3628873,9.2152439 17.3772676,4.89060976 10.2385493,4.89060976 C8.43002817,4.89060976 7.13270423,5.04341463 6.34485915,5.24743902 L6.34485915,29.7704878 Z M0.643507042,0.717926829 C3.14622535,0.261219512 6.34485915,0.00597560976 9.72821127,0.00597560976 C15.5687465,0.00597560976 19.6024789,1.32914634 22.475493,3.97378049 C25.4885493,6.67134146 27.3426056,10.7407317 27.3426056,16.5934146 C27.3426056,22.6962195 25.4412958,27.2760976 22.475493,30.2280488 C19.3696479,33.3319512 14.4097465,34.9078049 8.33723944,34.9078049 C5.00028169,34.9078049 2.49670423,34.7054878 0.643507042,34.4502439 L0.643507042,0.717926829 Z" id="path-1"></path>
        <linearGradient x1="0.204337753%" y1="50.0012229%" x2="220.893616%" y2="50.0012229%" id="linearGradient-3">
            <stop stop-color="#88C049" offset="0%"></stop>
            <stop stop-color="#7FBD49" offset="100%"></stop>
        </linearGradient>
        <path d="M6.13952113,0.384146341 L8.42916901,11.6285366 C8.9231831,14.2740244 9.41719718,16.9707317 9.821,19.6682927 L9.91121127,19.6682927 C10.3614085,16.9707317 11.0788028,14.2245122 11.7085634,11.6797561 L14.5377606,0.384146341 L19.0294225,0.384146341 L21.7692676,11.3741463 C22.4428451,14.2740244 23.0262113,16.9707317 23.5210845,19.6682927 L23.6104366,19.6682927 C23.9695634,16.9707317 24.4644366,14.2740244 25.0478028,11.3741463 L27.4749155,0.384146341 L32.9082113,0.384146341 L26.035831,25.1615854 L20.9152676,25.1615854 L18.3103099,15.0884146 C17.6384507,12.4941463 17.1435775,10.1534146 16.6487042,7.15109756 L16.558493,7.15109756 C16.1100141,10.2054878 15.5257887,12.6460976 14.8968873,15.0884146 L12.1123662,25.1615854 L6.94712676,25.1615854 L0.479408451,0.384146341 L6.13952113,0.384146341" id="path-4"></path>
        <linearGradient x1="-84.1051795%" y1="49.9982773%" x2="97.5949132%" y2="49.9982773%" id="linearGradient-6">
            <stop stop-color="#88C049" offset="0%"></stop>
            <stop stop-color="#7FBD49" offset="100%"></stop>
        </linearGradient>
    </defs>
    <g id="Page-1" stroke="none" stroke-width="1" fill="none" fill-rule="evenodd">
        <g id="Group-47-Copy" transform="translate(3.000000, 3.000000)">
            <g id="Group-19" transform="translate(14.000000, 26.000000)">
                <g id="Group-235">
                    <mask id="mask-2" fill="white">
                        <use xlink:href="#path-1"></use>
                    </mask>
                    <g id="Clip-234"></g>
                    <path d="M6.34485915,29.7704878 C7.13270423,29.9215854 8.33723944,29.9215854 9.49709859,29.9215854 C16.9133239,29.9736585 21.316493,25.4962195 21.316493,16.7957317 C21.3628873,9.2152439 17.3772676,4.89060976 10.2385493,4.89060976 C8.43002817,4.89060976 7.13270423,5.04341463 6.34485915,5.24743902 L6.34485915,29.7704878 Z M0.643507042,0.717926829 C3.14622535,0.261219512 6.34485915,0.00597560976 9.72821127,0.00597560976 C15.5687465,0.00597560976 19.6024789,1.32914634 22.475493,3.97378049 C25.4885493,6.67134146 27.3426056,10.7407317 27.3426056,16.5934146 C27.3426056,22.6962195 25.4412958,27.2760976 22.475493,30.2280488 C19.3696479,33.3319512 14.4097465,34.9078049 8.33723944,34.9078049 C5.00028169,34.9078049 2.49670423,34.7054878 0.643507042,34.4502439 L0.643507042,0.717926829 Z" id="Fill-233" fill="url(#linearGradient-3)" mask="url(#mask-2)"></path>
                </g>
                <g id="Group-239" transform="translate(27.492958, 9.390244)">
                    <mask id="mask-5" fill="white">
                        <use xlink:href="#path-4"></use>
                    </mask>
                    <g id="Clip-238"></g>
                    <path d="M6.13952113,0.384146341 L8.42916901,11.6285366 C8.9231831,14.2740244 9.41719718,16.9707317 9.821,19.6682927 L9.91121127,19.6682927 C10.3614085,16.9707317 11.0788028,14.2245122 11.7085634,11.6797561 L14.5377606,0.384146341 L19.0294225,0.384146341 L21.7692676,11.3741463 C22.4428451,14.2740244 23.0262113,16.9707317 23.5210845,19.6682927 L23.6104366,19.6682927 C23.9695634,16.9707317 24.4644366,14.2740244 25.0478028,11.3741463 L27.4749155,0.384146341 L32.9082113,0.384146341 L26.035831,25.1615854 L20.9152676,25.1615854 L18.3103099,15.0884146 C17.6384507,12.4941463 17.1435775,10.1534146 16.6487042,7.15109756 L16.558493,7.15109756 C16.1100141,10.2054878 15.5257887,12.6460976 14.8968873,15.0884146 L12.1123662,25.1615854 L6.94712676,25.1615854 L0.479408451,0.384146341 L6.13952113,0.384146341" id="Fill-237" fill="url(#linearGradient-6)" mask="url(#mask-5)"></path>
                </g>
            </g>
            <circle id="Oval-Copy-12" stroke="#81BE49" stroke-width="5" fill-rule="nonzero" cx="44" cy="44" r="44"></circle>
        </g>
    </g>
</svg>