<?xml version="1.0" encoding="UTF-8"?>
<svg width="94px" height="94px" viewBox="0 0 94 94" version="1.1" xmlns="http://www.w3.org/2000/svg" xmlns:xlink="http://www.w3.org/1999/xlink">
    <!-- Generator: Sketch 52.6 (67491) - http://www.bohemiancoding.com/sketch -->
    <title>Group 59 Copy</title>
    <desc>Created with Sketch.</desc>
    <defs>
        <polyline id="path-1" points="20.384 20.3811429 7.08780702 20.3811429 7.08780702 30.7165714 21.9537193 30.7165714 21.9537193 35.9871429 0.649894737 35.9871429 0.649894737 0.81 21.1688596 0.81 21.1688596 6.08142857 7.08780702 6.08142857 7.08780702 15.1628571 20.384 15.1628571 20.384 20.3811429"></polyline>
        <linearGradient x1="-0.447905738%" y1="49.9997563%" x2="225.971673%" y2="49.9997563%" id="linearGradient-3">
            <stop stop-color="#8D9FC5" offset="0%"></stop>
            <stop stop-color="#8394BE" offset="100%"></stop>
        </linearGradient>
        <path d="M0.679982456,8.70857143 C0.679982456,5.78657143 0.630982456,3.33342857 0.488280702,1.14171429 L5.67454386,1.14171429 L5.96252632,4.95085714 L6.10694737,4.95085714 C7.11445614,2.96742857 9.66073684,0.566571429 13.5506491,0.566571429 C17.6322632,0.566571429 21.8591579,3.43714286 21.8591579,11.4754286 L21.8591579,26.5585714 L15.9516491,26.5585714 L15.9516491,12.2057143 C15.9516491,8.55257143 14.7034386,5.78657143 11.4849123,5.78657143 C9.13291228,5.78657143 7.49957895,7.61228571 6.87547368,9.54428571 C6.68291228,10.1185714 6.63477193,10.9011429 6.63477193,11.6314286 L6.63477193,26.5585714 L0.679982456,26.5585714 L0.679982456,8.70857143" id="path-4"></path>
        <linearGradient x1="-124.384553%" y1="49.9993405%" x2="101.325825%" y2="49.9993405%" id="linearGradient-6">
            <stop stop-color="#8D9FC5" offset="0%"></stop>
            <stop stop-color="#8394BE" offset="100%"></stop>
        </linearGradient>
    </defs>
    <g id="Page-1" stroke="none" stroke-width="1" fill="none" fill-rule="evenodd">
        <g id="Group-59-Copy" transform="translate(3.000000, 3.000000)">
            <g id="Group-6" transform="translate(20.000000, 25.000000)">
                <g id="Group-25">
                    <mask id="mask-2" fill="white">
                        <use xlink:href="#path-1"></use>
                    </mask>
                    <g id="Clip-24"></g>
                    <polyline id="Fill-23" fill="url(#linearGradient-3)" mask="url(#mask-2)" points="20.384 20.3811429 7.08780702 20.3811429 7.08780702 30.7165714 21.9537193 30.7165714 21.9537193 35.9871429 0.649894737 35.9871429 0.649894737 0.81 21.1688596 0.81 21.1688596 6.08142857 7.08780702 6.08142857 7.08780702 15.1628571 20.384 15.1628571 20.384 20.3811429"></polyline>
                </g>
                <g id="Group-30" transform="translate(26.649123, 9.428571)">
                    <mask id="mask-5" fill="white">
                        <use xlink:href="#path-4"></use>
                    </mask>
                    <g id="Clip-29"></g>
                    <path d="M0.679982456,8.70857143 C0.679982456,5.78657143 0.630982456,3.33342857 0.488280702,1.14171429 L5.67454386,1.14171429 L5.96252632,4.95085714 L6.10694737,4.95085714 C7.11445614,2.96742857 9.66073684,0.566571429 13.5506491,0.566571429 C17.6322632,0.566571429 21.8591579,3.43714286 21.8591579,11.4754286 L21.8591579,26.5585714 L15.9516491,26.5585714 L15.9516491,12.2057143 C15.9516491,8.55257143 14.7034386,5.78657143 11.4849123,5.78657143 C9.13291228,5.78657143 7.49957895,7.61228571 6.87547368,9.54428571 C6.68291228,10.1185714 6.63477193,10.9011429 6.63477193,11.6314286 L6.63477193,26.5585714 L0.679982456,26.5585714 L0.679982456,8.70857143" id="Fill-28" fill="url(#linearGradient-6)" mask="url(#mask-5)"></path>
                </g>
            </g>
            <circle id="Oval-Copy" stroke="#8899C1" stroke-width="5" fill-rule="nonzero" cx="44" cy="44" r="44"></circle>
        </g>
    </g>
</svg>