<?xml version="1.0" encoding="UTF-8"?>
<svg width="51px" height="60px" viewBox="0 0 51 60" version="1.1" xmlns="http://www.w3.org/2000/svg" xmlns:xlink="http://www.w3.org/1999/xlink">
    <!-- Generator: Sketch 52.6 (67491) - http://www.bohemiancoding.com/sketch -->
    <title>escudo</title>
    <desc>Created with Sketch.</desc>
    <g id="Page-1" stroke="none" stroke-width="1" fill="none" fill-rule="evenodd">
        <g id="Terms-2" transform="translate(-163.000000, -194.000000)">
            <g id="escudo" transform="translate(163.000000, 194.000000)">
                <path d="M48.3060402,40.0675858 C46.6963258,44.4383156 44.2618781,48.2386717 41.0694071,51.3619948 C37.4355554,54.9169895 32.6772338,57.7418506 26.926491,59.7569273 C26.7377848,59.8228453 26.5408541,59.8768615 26.3430095,59.9166869 C26.0816535,59.9684143 25.8157286,59.9963379 25.5520882,60 L25.5004566,60 C25.2194534,60 24.9370794,59.9716186 24.65699,59.9166869 C24.4591455,59.8768615 24.2649562,59.8228453 24.0771638,59.7583007 C18.3195673,57.7464282 13.5553058,54.9229404 9.91779867,51.3679459 C6.72395698,48.2446226 4.28996625,44.4465554 2.68253637,40.0758256 C-0.24035437,32.129044 -0.0740368855,23.3747669 0.0598394274,16.339851 L0.0621239774,16.2318187 C0.0890820414,15.6509163 0.106444785,15.0407169 0.116040105,14.3668884 C0.164930013,11.0586287 2.79036851,8.32165823 6.09295623,8.13717934 C12.9786779,7.75219992 18.3054029,5.50229024 22.8567416,1.05786041 L22.8964933,1.02123929 C23.652232,0.326811345 24.6044447,-0.0137650088 25.5520882,0.000425731212 C26.4659199,0.0123276223 27.3760962,0.352446124 28.104877,1.02123929 L28.1437148,1.05786041 C32.6959674,5.50229024 38.0226923,7.75219992 44.9084141,8.13717934 C48.2110017,8.32165823 50.8364402,11.0586287 50.8853302,14.3668884 C50.8949254,15.0452946 50.9122882,15.6545784 50.9392462,16.2318187 L50.940617,16.2775951 C51.0740364,23.3257861 51.23944,32.0974583 48.3060402,40.0675858 Z" id="Path" fill="#00DD80"></path>
                <path d="M48.2475952,40.0674443 C46.6029583,44.4382052 44.1156957,48.2385883 40.8539646,51.3619335 C37.1412771,54.9169534 32.2797244,57.7418346 26.4042203,59.7569256 C26.2114201,59.8228441 26.010217,59.8768607 25.8080803,59.9166863 C25.5410542,59.9684141 25.26936,59.9963379 25,60 L25,0 C25.9336571,0.0119019756 26.8635796,0.352022891 27.6081712,1.02082081 L27.6478516,1.05744218 C32.2988645,5.50190355 37.7411518,7.75182919 44.7762582,8.13681135 C48.1504948,8.32129154 50.8328918,11.0582814 50.8828425,14.3665647 C50.8926458,15.0449757 50.9103853,15.6542638 50.9379282,16.2315081 L50.9393287,16.2772849 C51.0756426,23.3255259 51.2446346,32.0972603 48.2475952,40.0674443 Z" id="Path" fill="#00AA63"></path>
                <path d="M41,29.9997704 C41,38.2527206 34.2990985,44.9706121 26.0530361,45 L26.0002296,45 C17.7298303,45 11,38.2706289 11,29.9997704 C11,21.729371 17.7298303,15 26.0002296,15 L26.0530361,15 C34.2990985,15.0293879 41,21.7472793 41,29.9997704 Z" id="Path" fill="#FFFFFF"></path>
                <path d="M40,29.9997704 C40,38.2527206 33.2753218,44.9706121 25,45 L25,15 C33.2753218,15.0293879 40,21.7472793 40,29.9997704 Z" id="Path" fill="#E1EBF0"></path>
                <path d="M32.478794,27.0793554 L25.6718847,33.9807889 L24.2010333,35.4718625 C23.8535626,35.8241105 23.3978254,36 22.9425509,36 C22.4868137,36 22.0315392,35.8241105 21.6836058,35.4718625 L18.521206,32.2645768 C17.8262647,31.5600809 17.8262647,30.4189101 18.521206,29.7139451 C19.215222,29.0094492 20.3423041,29.0094492 21.0372454,29.7139451 L22.9425509,31.6454459 L29.9627544,24.5287237 C30.6576959,23.8237588 31.784778,23.8237588 32.478794,24.5287237 C33.1737353,25.2332196 33.1737353,26.3757976 32.478794,27.0793554 Z" id="Path" fill="#B4D2D7"></path>
                <path d="M32.5021309,27.0852826 L26,34 L26,28.8875078 L30.0987467,24.5297414 C30.7625722,23.8234195 31.8391894,23.8234195 32.5021309,24.5297414 C33.1659564,25.2355934 33.1659564,26.3803706 32.5021309,27.0852826 Z" id="Path" fill="#6FA5AA"></path>
            </g>
        </g>
    </g>
</svg>