<?xml version="1.0" encoding="UTF-8"?>
<svg width="94px" height="94px" viewBox="0 0 94 94" version="1.1" xmlns="http://www.w3.org/2000/svg" xmlns:xlink="http://www.w3.org/1999/xlink">
    <!-- Generator: Sketch 52.6 (67491) - http://www.bohemiancoding.com/sketch -->
    <title>Group 48 Copy</title>
    <desc>Created with Sketch.</desc>
    <defs>
        <polyline id="path-1" points="0.384318182 0.817714286 20.8404091 0.817714286 20.8404091 6.08914286 6.85381818 6.08914286 6.85381818 15.7962857 19.8938636 15.7962857 19.8938636 21.0677143 6.85381818 21.0677143 6.85381818 35.9948571 0.384318182 35.9948571 0.384318182 0.817714286"></polyline>
        <linearGradient x1="-0.44329984%" y1="50%" x2="273.357257%" y2="50%" id="linearGradient-3">
            <stop stop-color="#CFDB4E" offset="0%"></stop>
            <stop stop-color="#D0BE42" offset="100%"></stop>
        </linearGradient>
        <path d="M6.18968182,0.291428571 L8.6735,11.8251429 C9.20809091,14.5397143 9.74440909,17.3057143 10.1822727,20.0717143 L10.2798636,20.0717143 C10.7660909,17.3057143 11.5450909,14.4882857 12.2273636,11.8782857 L15.2958636,0.291428571 L20.1667727,0.291428571 L23.1350909,11.5654286 C23.8674545,14.5397143 24.4996364,17.3057143 25.0350909,20.0717143 L25.1335455,20.0717143 C25.5239091,17.3057143 26.0567727,14.5397143 26.6915455,11.5654286 L29.3195909,0.291428571 L35.2121818,0.291428571 L27.7624545,25.7091429 L22.211,25.7091429 L19.3869091,15.3754286 C18.6562727,12.714 18.1208182,10.3131429 17.5836364,7.23342857 L17.4869091,7.23342857 C16.9998182,10.3645714 16.3676364,12.87 15.6862273,15.3754286 L12.6660909,25.7091429 L7.06540909,25.7091429 L0.0544090909,0.291428571 L6.18968182,0.291428571" id="path-4"></path>
        <linearGradient x1="-60.7334987%" y1="50.0033722%" x2="98.5801665%" y2="50.0033722%" id="linearGradient-6">
            <stop stop-color="#CFDB4E" offset="0%"></stop>
            <stop stop-color="#D0BE42" offset="100%"></stop>
        </linearGradient>
    </defs>
    <g id="Page-1" stroke="none" stroke-width="1" fill="none" fill-rule="evenodd">
        <g id="Group-48-Copy" transform="translate(3.000000, 3.000000)">
            <g id="Group-18" transform="translate(15.000000, 26.000000)">
                <g id="Group-159">
                    <mask id="mask-2" fill="white">
                        <use xlink:href="#path-1"></use>
                    </mask>
                    <g id="Clip-158"></g>
                    <polyline id="Fill-157" fill="url(#linearGradient-3)" mask="url(#mask-2)" points="0.384318182 0.817714286 20.8404091 0.817714286 20.8404091 6.08914286 6.85381818 6.08914286 6.85381818 15.7962857 19.8938636 15.7962857 19.8938636 21.0677143 6.85381818 21.0677143 6.85381818 35.9948571 0.384318182 35.9948571 0.384318182 0.817714286"></polyline>
                </g>
                <g id="Group-163" transform="translate(21.590909, 10.285714)">
                    <mask id="mask-5" fill="white">
                        <use xlink:href="#path-4"></use>
                    </mask>
                    <g id="Clip-162"></g>
                    <path d="M6.18968182,0.291428571 L8.6735,11.8251429 C9.20809091,14.5397143 9.74440909,17.3057143 10.1822727,20.0717143 L10.2798636,20.0717143 C10.7660909,17.3057143 11.5450909,14.4882857 12.2273636,11.8782857 L15.2958636,0.291428571 L20.1667727,0.291428571 L23.1350909,11.5654286 C23.8674545,14.5397143 24.4996364,17.3057143 25.0350909,20.0717143 L25.1335455,20.0717143 C25.5239091,17.3057143 26.0567727,14.5397143 26.6915455,11.5654286 L29.3195909,0.291428571 L35.2121818,0.291428571 L27.7624545,25.7091429 L22.211,25.7091429 L19.3869091,15.3754286 C18.6562727,12.714 18.1208182,10.3131429 17.5836364,7.23342857 L17.4869091,7.23342857 C16.9998182,10.3645714 16.3676364,12.87 15.6862273,15.3754286 L12.6660909,25.7091429 L7.06540909,25.7091429 L0.0544090909,0.291428571 L6.18968182,0.291428571" id="Fill-161" fill="url(#linearGradient-6)" mask="url(#mask-5)"></path>
                </g>
            </g>
            <circle id="Oval-Copy-8" stroke="#CFD44B" stroke-width="5" fill-rule="nonzero" cx="44" cy="44" r="44"></circle>
        </g>
    </g>
</svg>