<?xml version="1.0" encoding="UTF-8"?>
<svg width="94px" height="94px" viewBox="0 0 94 94" version="1.1" xmlns="http://www.w3.org/2000/svg" xmlns:xlink="http://www.w3.org/1999/xlink">
    <!-- Generator: Sketch 52.6 (67491) - http://www.bohemiancoding.com/sketch -->
    <title>Group 52 Copy</title>
    <desc>Created with Sketch.</desc>
    <defs>
        <polyline id="path-1" points="0.351218182 0.0984545455 20.1638545 0.0984545455 20.1638545 5.29668182 6.61589091 5.29668182 6.61589091 14.8709545 19.2460727 14.8709545 19.2460727 20.0700455 6.61589091 20.0700455 6.61589091 34.7907273 0.351218182 34.7907273 0.351218182 0.0984545455"></polyline>
        <linearGradient x1="-0.530515419%" y1="50%" x2="231.551865%" y2="50%" id="linearGradient-3">
            <stop stop-color="#E6784A" offset="0%"></stop>
            <stop stop-color="#D66939" offset="100%"></stop>
        </linearGradient>
        <path d="M6.49625455,25.8909545 C6.49625455,26.5602727 6.5424,27.1777727 6.68169091,27.7443182 C7.24227273,30.4716818 9.29318182,32.2222727 11.6243818,32.2222727 C15.2613273,32.2222727 17.3122364,28.8765455 17.3122364,24.2958182 C17.3122364,19.6105909 15.2613273,16.0083636 11.5782364,16.0083636 C8.96674545,16.0083636 7.14912727,18.0154545 6.63554545,20.4863182 C6.5424,21.0010455 6.49625455,21.6185455 6.49625455,22.1332727 L6.49625455,25.8909545 Z M6.49625455,0.205545455 L6.49625455,14.4132273 L6.5894,14.4132273 C7.61485455,12.5598636 9.85205455,11.1184545 12.9762727,11.1184545 C18.4316909,11.1184545 23.1872364,16.1111364 23.1393818,24.5013636 C23.1393818,32.2222727 18.8504182,37.3185909 13.4428545,37.3185909 C10.1314909,37.3185909 7.38241818,35.568 6.02967273,32.7879545 L5.93481818,32.7879545 L5.70323636,36.7520455 L0.574254545,36.7520455 C0.668254545,35.0524091 0.760545455,32.2732273 0.760545455,29.7004545 L0.760545455,0.205545455 L6.49625455,0.205545455 Z" id="path-4"></path>
        <linearGradient x1="203.696684%" y1="50.0011635%" x2="-0.0708161148%" y2="50.0011635%" id="linearGradient-6">
            <stop stop-color="#E6784A" offset="0%"></stop>
            <stop stop-color="#D66939" offset="100%"></stop>
        </linearGradient>
    </defs>
    <g id="Page-1" stroke="none" stroke-width="1" fill="none" fill-rule="evenodd">
        <g id="Group-52-Copy" transform="translate(3.000000, 3.000000)">
            <g id="Group-14" transform="translate(20.000000, 25.000000)">
                <g id="Group-222" transform="translate(0.000000, 1.727273)">
                    <mask id="mask-2" fill="white">
                        <use xlink:href="#path-1"></use>
                    </mask>
                    <g id="Clip-221"></g>
                    <polyline id="Fill-220" fill="url(#linearGradient-3)" mask="url(#mask-2)" points="0.351218182 0.0984545455 20.1638545 0.0984545455 20.1638545 5.29668182 6.61589091 5.29668182 6.61589091 14.8709545 19.2460727 14.8709545 19.2460727 20.0700455 6.61589091 20.0700455 6.61589091 34.7907273 0.351218182 34.7907273 0.351218182 0.0984545455"></polyline>
                </g>
                <g id="Group-226" transform="translate(23.072727, 0.000000)">
                    <mask id="mask-5" fill="white">
                        <use xlink:href="#path-4"></use>
                    </mask>
                    <g id="Clip-225"></g>
                    <path d="M6.49625455,25.8909545 C6.49625455,26.5602727 6.5424,27.1777727 6.68169091,27.7443182 C7.24227273,30.4716818 9.29318182,32.2222727 11.6243818,32.2222727 C15.2613273,32.2222727 17.3122364,28.8765455 17.3122364,24.2958182 C17.3122364,19.6105909 15.2613273,16.0083636 11.5782364,16.0083636 C8.96674545,16.0083636 7.14912727,18.0154545 6.63554545,20.4863182 C6.5424,21.0010455 6.49625455,21.6185455 6.49625455,22.1332727 L6.49625455,25.8909545 Z M6.49625455,0.205545455 L6.49625455,14.4132273 L6.5894,14.4132273 C7.61485455,12.5598636 9.85205455,11.1184545 12.9762727,11.1184545 C18.4316909,11.1184545 23.1872364,16.1111364 23.1393818,24.5013636 C23.1393818,32.2222727 18.8504182,37.3185909 13.4428545,37.3185909 C10.1314909,37.3185909 7.38241818,35.568 6.02967273,32.7879545 L5.93481818,32.7879545 L5.70323636,36.7520455 L0.574254545,36.7520455 C0.668254545,35.0524091 0.760545455,32.2732273 0.760545455,29.7004545 L0.760545455,0.205545455 L6.49625455,0.205545455 Z" id="Fill-224" fill="url(#linearGradient-6)" mask="url(#mask-5)"></path>
                </g>
            </g>
            <circle id="Oval-Copy-6" stroke="#DA6D3D" stroke-width="5" fill-rule="nonzero" cx="44" cy="44" r="44"></circle>
        </g>
    </g>
</svg>