<?xml version="1.0" encoding="UTF-8"?>
<svg width="94px" height="94px" viewBox="0 0 94 94" version="1.1" xmlns="http://www.w3.org/2000/svg" xmlns:xlink="http://www.w3.org/1999/xlink">
    <!-- Generator: Sketch 52.6 (67491) - http://www.bohemiancoding.com/sketch -->
    <title>Group 50 Copy</title>
    <desc>Created with Sketch.</desc>
    <defs>
        <path d="M19.987234,20.3614286 L17.2987234,11.8817143 C16.64,9.78685714 16.0817021,7.43657143 15.5744681,5.44457143 L15.4731915,5.44457143 C14.9651064,7.43657143 14.4587234,9.83828571 13.8493617,11.8817143 L11.212766,20.3614286 L19.987234,20.3614286 Z M10.1974468,25.1125714 L7.25617021,34.8702857 L0.814468085,34.8702857 L11.7702128,0.438 L19.733617,0.438 L30.8417021,34.8702857 L24.147234,34.8702857 L21.052766,25.1125714 L10.1974468,25.1125714 Z" id="path-1"></path>
        <linearGradient x1="-1.9783459%" y1="50.0012447%" x2="128.53438%" y2="50.0012447%" id="linearGradient-3">
            <stop stop-color="#ECB167" offset="0%"></stop>
            <stop stop-color="#E98C3D" offset="100%"></stop>
        </linearGradient>
        <path d="M0.934468085,35.7274286 L7.22382979,35.7274286 L7.22382979,10.848 L0.934468085,10.848 L0.934468085,35.7274286 Z M7.57957447,3.90085714 C7.57957447,5.79085714 6.21021277,7.272 4.02893617,7.272 C1.94893617,7.272 0.579574468,5.79085714 0.579574468,3.90085714 C0.579574468,1.95942857 2,0.477428571 4.07914894,0.477428571 C6.21021277,0.477428571 7.52851064,1.95942857 7.57957447,3.90085714 Z" id="path-4"></path>
        <linearGradient x1="-467.221884%" y1="50.0012158%" x2="92.7246201%" y2="50.0012158%" id="linearGradient-6">
            <stop stop-color="#ECB167" offset="0%"></stop>
            <stop stop-color="#E98C3D" offset="100%"></stop>
        </linearGradient>
    </defs>
    <g id="Page-1" stroke="none" stroke-width="1" fill="none" fill-rule="evenodd">
        <g id="Group-50-Copy" transform="translate(3.000000, 3.000000)">
            <g id="Group-15" transform="translate(23.000000, 26.000000)">
                <g id="Group-132" transform="translate(0.000000, 0.857143)">
                    <mask id="mask-2" fill="white">
                        <use xlink:href="#path-1"></use>
                    </mask>
                    <g id="Clip-131"></g>
                    <path d="M19.987234,20.3614286 L17.2987234,11.8817143 C16.64,9.78685714 16.0817021,7.43657143 15.5744681,5.44457143 L15.4731915,5.44457143 C14.9651064,7.43657143 14.4587234,9.83828571 13.8493617,11.8817143 L11.212766,20.3614286 L19.987234,20.3614286 Z M10.1974468,25.1125714 L7.25617021,34.8702857 L0.814468085,34.8702857 L11.7702128,0.438 L19.733617,0.438 L30.8417021,34.8702857 L24.147234,34.8702857 L21.052766,25.1125714 L10.1974468,25.1125714 Z" id="Fill-130" fill="url(#linearGradient-3)" mask="url(#mask-2)"></path>
                </g>
                <g id="Group-136" transform="translate(32.340426, 0.000000)">
                    <mask id="mask-5" fill="white">
                        <use xlink:href="#path-4"></use>
                    </mask>
                    <g id="Clip-135"></g>
                    <path d="M0.934468085,35.7274286 L7.22382979,35.7274286 L7.22382979,10.848 L0.934468085,10.848 L0.934468085,35.7274286 Z M7.57957447,3.90085714 C7.57957447,5.79085714 6.21021277,7.272 4.02893617,7.272 C1.94893617,7.272 0.579574468,5.79085714 0.579574468,3.90085714 C0.579574468,1.95942857 2,0.477428571 4.07914894,0.477428571 C6.21021277,0.477428571 7.52851064,1.95942857 7.57957447,3.90085714 Z" id="Fill-134" fill="url(#linearGradient-6)" mask="url(#mask-5)"></path>
                </g>
            </g>
            <circle id="Oval-Copy-7" stroke="#EBA95D" stroke-width="5" fill-rule="nonzero" cx="44" cy="44" r="44"></circle>
        </g>
    </g>
</svg>