<?xml version="1.0" encoding="UTF-8"?>
<svg width="94px" height="94px" viewBox="0 0 94 94" version="1.1" xmlns="http://www.w3.org/2000/svg" xmlns:xlink="http://www.w3.org/1999/xlink">
    <!-- Generator: Sketch 52.6 (67491) - http://www.bohemiancoding.com/sketch -->
    <title>Group 55 Copy</title>
    <desc>Created with Sketch.</desc>
    <defs>
        <linearGradient x1="-0.941208566%" y1="50.0007468%" x2="539.968626%" y2="50.0007468%" id="linearGradient-1">
            <stop stop-color="#C35692" offset="0%"></stop>
            <stop stop-color="#C13E82" offset="100%"></stop>
        </linearGradient>
        <path d="M16.7977,22.7818636 C16.7977,22.2671364 16.75095,21.6487727 16.65915,21.1349091 C16.1483,18.6640455 14.34035,16.6560909 11.7436,16.6560909 C8.0801,16.6560909 6.0384,20.2591818 6.0384,24.9435455 C6.0384,29.5251364 8.0801,32.87 11.69685,32.87 C14.01565,32.87 16.05565,31.1202727 16.6124,28.3920455 C16.75095,27.8255 16.7977,27.208 16.7977,26.5386818 L16.7977,22.7818636 Z M22.50205,0.854136364 L22.50205,30.3490455 C22.50205,32.9218182 22.59385,35.701 22.6882,37.3997727 L17.5865,37.3997727 L17.3553,33.4356818 L17.2618,33.4356818 C15.91625,36.2165909 13.1818,37.9663182 9.88805,37.9663182 C4.5101,37.9663182 0.24225,32.87 0.24225,25.1490909 C0.1955,16.7588636 4.92575,11.7670455 10.353,11.7670455 C13.4606,11.7670455 15.68505,13.2075909 16.7059,15.0600909 L16.7977,15.0600909 L16.7977,0.854136364 L22.50205,0.854136364 Z" id="path-2"></path>
        <linearGradient x1="-49.7496672%" y1="50.0002327%" x2="100.413142%" y2="50.0002327%" id="linearGradient-4">
            <stop stop-color="#C35692" offset="0%"></stop>
            <stop stop-color="#C13E82" offset="100%"></stop>
        </linearGradient>
    </defs>
    <g id="Page-1" stroke="none" stroke-width="1" fill="none" fill-rule="evenodd">
        <g id="Group-55-Copy" transform="translate(3.000000, 3.000000)">
            <g id="Group-11" transform="translate(27.000000, 21.000000)">
                <polygon id="Fill-61" fill="url(#linearGradient-1)" points="-8.52651283e-13 37.2840455 6.23135 37.2840455 6.23135 2.59090909 -8.52651283e-13 2.59090909"></polygon>
                <g id="Group-66" transform="translate(11.050000, 0.000000)">
                    <mask id="mask-3" fill="white">
                        <use xlink:href="#path-2"></use>
                    </mask>
                    <g id="Clip-65"></g>
                    <path d="M16.7977,22.7818636 C16.7977,22.2671364 16.75095,21.6487727 16.65915,21.1349091 C16.1483,18.6640455 14.34035,16.6560909 11.7436,16.6560909 C8.0801,16.6560909 6.0384,20.2591818 6.0384,24.9435455 C6.0384,29.5251364 8.0801,32.87 11.69685,32.87 C14.01565,32.87 16.05565,31.1202727 16.6124,28.3920455 C16.75095,27.8255 16.7977,27.208 16.7977,26.5386818 L16.7977,22.7818636 Z M22.50205,0.854136364 L22.50205,30.3490455 C22.50205,32.9218182 22.59385,35.701 22.6882,37.3997727 L17.5865,37.3997727 L17.3553,33.4356818 L17.2618,33.4356818 C15.91625,36.2165909 13.1818,37.9663182 9.88805,37.9663182 C4.5101,37.9663182 0.24225,32.87 0.24225,25.1490909 C0.1955,16.7588636 4.92575,11.7670455 10.353,11.7670455 C13.4606,11.7670455 15.68505,13.2075909 16.7059,15.0600909 L16.7977,15.0600909 L16.7977,0.854136364 L22.50205,0.854136364 Z" id="Fill-64" fill="url(#linearGradient-4)" mask="url(#mask-3)"></path>
                </g>
            </g>
            <circle id="Oval-Copy-5" stroke="#C14184" stroke-width="5" fill-rule="nonzero" cx="44" cy="44" r="44"></circle>
        </g>
    </g>
</svg>