<?xml version="1.0" encoding="UTF-8"?>
<svg width="94px" height="94px" viewBox="0 0 94 94" version="1.1" xmlns="http://www.w3.org/2000/svg" xmlns:xlink="http://www.w3.org/1999/xlink">
    <!-- Generator: Sketch 52.6 (67491) - http://www.bohemiancoding.com/sketch -->
    <title>Group 42 Copy</title>
    <desc>Created with Sketch.</desc>
    <defs>
        <polyline id="path-1" points="0.201702128 0.731142857 6.57617021 0.731142857 6.57617021 30.534 20.9302128 30.534 20.9302128 35.9091429 0.201702128 35.9091429 0.201702128 0.731142857"></polyline>
        <linearGradient x1="0.394153391%" y1="50.0012183%" x2="188.484973%" y2="50.0012183%" id="linearGradient-3">
            <stop stop-color="#B0D2D7" offset="0%"></stop>
            <stop stop-color="#8AAFB5" offset="100%"></stop>
        </linearGradient>
        <path d="M0.81106383,9.25714286 C0.81106383,5.81314286 0.759148936,3.35914286 0.603404255,1.06371429 L6.14893617,1.06371429 L6.35489362,5.91685714 L6.56340426,5.91685714 C7.80765957,2.316 10.7608511,0.488571429 13.4561702,0.488571429 C14.0774468,0.488571429 14.4417021,0.540857143 14.9582979,0.645428571 L14.9582979,6.69942857 C14.4417021,6.59571429 13.8689362,6.49285714 13.093617,6.49285714 C10.0348936,6.49285714 7.96255319,8.47457143 7.39319149,11.3451429 C7.28851064,11.9194286 7.18553191,12.5982857 7.18553191,13.3277143 L7.18553191,26.4805714 L0.81106383,26.4805714 L0.81106383,9.25714286" id="path-4"></path>
        <linearGradient x1="-174.168495%" y1="50%" x2="97.4464932%" y2="50%" id="linearGradient-6">
            <stop stop-color="#B0D2D7" offset="0%"></stop>
            <stop stop-color="#8AAFB5" offset="100%"></stop>
        </linearGradient>
    </defs>
    <g id="Page-1" stroke="none" stroke-width="1" fill="none" fill-rule="evenodd">
        <g id="Group-42-Copy" transform="translate(3.000000, 3.000000)">
            <g id="Group-26" transform="translate(24.000000, 26.000000)">
                <g id="Group-336">
                    <mask id="mask-2" fill="white">
                        <use xlink:href="#path-1"></use>
                    </mask>
                    <g id="Clip-335"></g>
                    <polyline id="Fill-334" fill="url(#linearGradient-3)" mask="url(#mask-2)" points="0.201702128 0.731142857 6.57617021 0.731142857 6.57617021 30.534 20.9302128 30.534 20.9302128 35.9091429 0.201702128 35.9091429 0.201702128 0.731142857"></polyline>
                </g>
                <g id="Group-341" transform="translate(24.680851, 9.428571)">
                    <mask id="mask-5" fill="white">
                        <use xlink:href="#path-4"></use>
                    </mask>
                    <g id="Clip-340"></g>
                    <path d="M0.81106383,9.25714286 C0.81106383,5.81314286 0.759148936,3.35914286 0.603404255,1.06371429 L6.14893617,1.06371429 L6.35489362,5.91685714 L6.56340426,5.91685714 C7.80765957,2.316 10.7608511,0.488571429 13.4561702,0.488571429 C14.0774468,0.488571429 14.4417021,0.540857143 14.9582979,0.645428571 L14.9582979,6.69942857 C14.4417021,6.59571429 13.8689362,6.49285714 13.093617,6.49285714 C10.0348936,6.49285714 7.96255319,8.47457143 7.39319149,11.3451429 C7.28851064,11.9194286 7.18553191,12.5982857 7.18553191,13.3277143 L7.18553191,26.4805714 L0.81106383,26.4805714 L0.81106383,9.25714286" id="Fill-339" fill="url(#linearGradient-6)" mask="url(#mask-5)"></path>
                </g>
            </g>
            <circle id="Oval-Copy-13" stroke="#8AAFB6" stroke-width="5" fill-rule="nonzero" cx="44" cy="44" r="44"></circle>
        </g>
    </g>
</svg>