<?xml version="1.0" encoding="UTF-8"?>
<svg width="94px" height="94px" viewBox="0 0 94 94" version="1.1" xmlns="http://www.w3.org/2000/svg" xmlns:xlink="http://www.w3.org/1999/xlink">
    <!-- Generator: Sketch 52.6 (67491) - http://www.bohemiancoding.com/sketch -->
    <title>Group 60 Copy</title>
    <desc>Created with Sketch.</desc>
    <defs>
        <path d="M6.76906,17.4917143 C7.5379,17.6965714 8.56302,17.7471429 9.84442,17.7471429 C14.5598,17.7471429 17.43048,15.4482857 17.43048,11.412 C17.43048,7.58057143 14.76534,5.538 10.40772,5.538 C8.66536,5.538 7.43556,5.69057143 6.76906,5.844 L6.76906,17.4917143 Z M0.51514,1.45114286 C2.77092,1.04228571 5.89702,0.735428571 10.15144,0.735428571 C14.76534,0.735428571 18.14772,1.70571429 20.35104,3.54514286 C22.40128,5.23114286 23.73514,7.93885714 23.73514,11.1565714 C23.73514,14.4265714 22.71002,17.1342857 20.76212,18.9728571 C18.25092,21.4765714 14.30352,22.6508571 9.84442,22.6508571 C8.66536,22.6508571 7.5895,22.6002857 6.76906,22.4468571 L6.76906,35.4222857 L0.51514,35.4222857 L0.51514,1.45114286 Z" id="path-1"></path>
        <linearGradient x1="-0.954444444%" y1="50.0007413%" x2="178.259259%" y2="50.0007413%" id="linearGradient-3">
            <stop stop-color="#85B4D5" offset="0%"></stop>
            <stop stop-color="#68A0CA" offset="100%"></stop>
        </linearGradient>
        <path d="M1.5996,20.2217143 C3.03494,21.0908571 5.75168,22.0097143 8.00746,22.0097143 C10.7758,22.0097143 12.00474,20.886 12.00474,19.2514286 C12.00474,17.5654286 10.98048,16.6962857 7.90512,15.6231429 C3.03494,13.938 0.9847,11.2817143 1.03544,8.37 C1.03544,3.97714286 4.67582,0.553714286 10.46792,0.553714286 C13.2354,0.553714286 15.64426,1.26857143 17.07874,2.03485714 L15.8498,6.47914286 C14.77308,5.86542857 12.77358,5.04942857 10.57026,5.04942857 C8.31534,5.04942857 7.08468,6.12171429 7.08468,7.65428571 C7.08468,9.23828571 8.26288,10.0037143 11.44144,11.1282857 C15.95214,12.7628571 18.05312,15.0617143 18.10472,18.7397143 C18.10472,23.2354286 14.5684,26.5568571 7.95586,26.5568571 C4.93124,26.5568571 2.2145,25.7897143 0.37066,24.7688571 L1.5996,20.2217143" id="path-4"></path>
        <linearGradient x1="-136.211629%" y1="49.9983518%" x2="98.4365453%" y2="49.9983518%" id="linearGradient-6">
            <stop stop-color="#85B4D5" offset="0%"></stop>
            <stop stop-color="#68A0CA" offset="100%"></stop>
        </linearGradient>
    </defs>
    <g id="Page-1" stroke="none" stroke-width="1" fill="none" fill-rule="evenodd">
        <g id="Group-60-Copy" transform="translate(3.000000, 3.000000)">
            <g id="Group-5" transform="translate(22.000000, 25.000000)">
                <g id="Group-12">
                    <mask id="mask-2" fill="white">
                        <use xlink:href="#path-1"></use>
                    </mask>
                    <g id="Clip-11"></g>
                    <path d="M6.76906,17.4917143 C7.5379,17.6965714 8.56302,17.7471429 9.84442,17.7471429 C14.5598,17.7471429 17.43048,15.4482857 17.43048,11.412 C17.43048,7.58057143 14.76534,5.538 10.40772,5.538 C8.66536,5.538 7.43556,5.69057143 6.76906,5.844 L6.76906,17.4917143 Z M0.51514,1.45114286 C2.77092,1.04228571 5.89702,0.735428571 10.15144,0.735428571 C14.76534,0.735428571 18.14772,1.70571429 20.35104,3.54514286 C22.40128,5.23114286 23.73514,7.93885714 23.73514,11.1565714 C23.73514,14.4265714 22.71002,17.1342857 20.76212,18.9728571 C18.25092,21.4765714 14.30352,22.6508571 9.84442,22.6508571 C8.66536,22.6508571 7.5895,22.6002857 6.76906,22.4468571 L6.76906,35.4222857 L0.51514,35.4222857 L0.51514,1.45114286 Z" id="Fill-10" fill="url(#linearGradient-3)" mask="url(#mask-2)"></path>
                </g>
                <g id="Group-16" transform="translate(24.080000, 9.428571)">
                    <mask id="mask-5" fill="white">
                        <use xlink:href="#path-4"></use>
                    </mask>
                    <g id="Clip-15"></g>
                    <path d="M1.5996,20.2217143 C3.03494,21.0908571 5.75168,22.0097143 8.00746,22.0097143 C10.7758,22.0097143 12.00474,20.886 12.00474,19.2514286 C12.00474,17.5654286 10.98048,16.6962857 7.90512,15.6231429 C3.03494,13.938 0.9847,11.2817143 1.03544,8.37 C1.03544,3.97714286 4.67582,0.553714286 10.46792,0.553714286 C13.2354,0.553714286 15.64426,1.26857143 17.07874,2.03485714 L15.8498,6.47914286 C14.77308,5.86542857 12.77358,5.04942857 10.57026,5.04942857 C8.31534,5.04942857 7.08468,6.12171429 7.08468,7.65428571 C7.08468,9.23828571 8.26288,10.0037143 11.44144,11.1282857 C15.95214,12.7628571 18.05312,15.0617143 18.10472,18.7397143 C18.10472,23.2354286 14.5684,26.5568571 7.95586,26.5568571 C4.93124,26.5568571 2.2145,25.7897143 0.37066,24.7688571 L1.5996,20.2217143" id="Fill-14" fill="url(#linearGradient-6)" mask="url(#mask-5)"></path>
                </g>
            </g>
            <circle id="Oval" stroke="#7AACD1" stroke-width="5" fill-rule="nonzero" cx="44" cy="44" r="44"></circle>
        </g>
    </g>
</svg>