<?xml version="1.0" encoding="UTF-8"?>
<svg width="94px" height="94px" viewBox="0 0 94 94" version="1.1" xmlns="http://www.w3.org/2000/svg" xmlns:xlink="http://www.w3.org/1999/xlink">
    <!-- Generator: Sketch 52.6 (67491) - http://www.bohemiancoding.com/sketch -->
    <title>Group 44 Copy</title>
    <desc>Created with Sketch.</desc>
    <defs>
        <path d="M7.22962791,17.4299091 C8.01523256,17.6406364 9.0624186,17.6933182 10.3737674,17.6933182 C15.1932326,17.6933182 18.1265581,15.3269545 18.1265581,11.172 C18.1265581,7.2295 15.403186,5.12568182 10.9494186,5.12568182 C9.16825581,5.12568182 7.91111628,5.28286364 7.22962791,5.44004545 L7.22962791,17.4299091 Z M0.836372093,0.918045455 C3.14155814,0.498318182 6.33818605,0.181363636 10.6869767,0.181363636 C15.403186,0.181363636 18.8605349,1.18145455 21.114093,3.07368182 C23.210186,4.80959091 24.5723023,7.59740909 24.5723023,10.9094545 C24.5723023,14.2750455 23.5242558,17.062 21.5322791,18.9568182 C18.9663721,21.5321818 14.9325116,22.7421364 10.3737674,22.7421364 C9.16825581,22.7421364 8.06772093,22.6894545 7.22962791,22.5314091 L7.22962791,35.8884091 L0.836372093,35.8884091 L0.836372093,0.918045455 Z" id="path-1"></path>
        <linearGradient x1="-1.16730107%" y1="50.0012093%" x2="148.456407%" y2="50.0012093%" id="linearGradient-3">
            <stop stop-color="#7ABECB" offset="0%"></stop>
            <stop stop-color="#54ACC7" offset="100%"></stop>
        </linearGradient>
        <linearGradient x1="-448.629321%" y1="50%" x2="97.9843729%" y2="50%" id="linearGradient-4">
            <stop stop-color="#7ABECB" offset="0%"></stop>
            <stop stop-color="#54ACC7" offset="100%"></stop>
        </linearGradient>
    </defs>
    <g id="Page-1" stroke="none" stroke-width="1" fill="none" fill-rule="evenodd">
        <g id="Group-44-Copy" transform="translate(3.000000, 3.000000)">
            <g id="Group-24" transform="translate(26.000000, 25.000000)">
                <g id="Group-275" transform="translate(0.000000, 1.727273)">
                    <mask id="mask-2" fill="white">
                        <use xlink:href="#path-1"></use>
                    </mask>
                    <g id="Clip-274"></g>
                    <path d="M7.22962791,17.4299091 C8.01523256,17.6406364 9.0624186,17.6933182 10.3737674,17.6933182 C15.1932326,17.6933182 18.1265581,15.3269545 18.1265581,11.172 C18.1265581,7.2295 15.403186,5.12568182 10.9494186,5.12568182 C9.16825581,5.12568182 7.91111628,5.28286364 7.22962791,5.44004545 L7.22962791,17.4299091 Z M0.836372093,0.918045455 C3.14155814,0.498318182 6.33818605,0.181363636 10.6869767,0.181363636 C15.403186,0.181363636 18.8605349,1.18145455 21.114093,3.07368182 C23.210186,4.80959091 24.5723023,7.59740909 24.5723023,10.9094545 C24.5723023,14.2750455 23.5242558,17.062 21.5322791,18.9568182 C18.9663721,21.5321818 14.9325116,22.7421364 10.3737674,22.7421364 C9.16825581,22.7421364 8.06772093,22.6894545 7.22962791,22.5314091 L7.22962791,35.8884091 L0.836372093,35.8884091 L0.836372093,0.918045455 Z" id="Fill-273" fill="url(#linearGradient-3)" mask="url(#mask-2)"></path>
                </g>
                <polygon id="Fill-278" fill="url(#linearGradient-4)" points="30.1162791 37.3367273 36.6136512 37.3367273 36.6136512 -1.42108547e-14 30.1162791 -1.42108547e-14"></polygon>
            </g>
            <circle id="Oval-Copy-14" stroke="#54ADC8" stroke-width="5" fill-rule="nonzero" cx="44" cy="44" r="44"></circle>
        </g>
    </g>
</svg>