<?xml version="1.0" encoding="UTF-8"?>
<svg width="94px" height="94px" viewBox="0 0 94 94" version="1.1" xmlns="http://www.w3.org/2000/svg" xmlns:xlink="http://www.w3.org/1999/xlink">
    <!-- Generator: Sketch 52.6 (67491) - http://www.bohemiancoding.com/sketch -->
    <title>Group 56 Copy</title>
    <desc>Created with Sketch.</desc>
    <defs>
        <path d="M6.4758,17.7625814 C7.26098,17.9725349 8.3076,18.0241628 9.61824,18.0241628 C14.4351,18.0241628 17.3677,15.6673488 17.3677,11.5276512 C17.3677,7.59790698 14.64408,5.50267442 10.19358,5.50267442 C8.41252,5.50267442 7.15692,5.65927907 6.4758,5.81674419 L6.4758,17.7625814 Z M0.086,1.31048837 C2.3908,0.89144186 5.58656,0.577372093 9.933,0.577372093 C14.64408,0.577372093 18.10042,1.57293023 20.3519,3.45906977 C22.44772,5.18774419 23.8091,7.96446512 23.8091,11.2652093 C23.8091,14.6184419 22.76162,17.3960233 20.77072,19.2821628 C18.2062,21.8497907 14.17366,23.0535814 9.61824,23.0535814 C8.41252,23.0535814 7.31344,23.0019535 6.4758,22.8444884 L6.4758,36.1533023 L0.086,36.1533023 L0.086,1.31048837 Z" id="path-1"></path>
        <linearGradient x1="0.464020301%" y1="49.9995163%" x2="178.832699%" y2="49.9995163%" id="linearGradient-3">
            <stop stop-color="#A37DAB" offset="0%"></stop>
            <stop stop-color="#815793" offset="100%"></stop>
        </linearGradient>
        <path d="M0.9503,9.39713953 C0.9503,5.93893023 0.89698,3.47713953 0.74132,1.17195349 L6.34508,1.17195349 L6.5532,6.04476744 L6.76304,6.04476744 C8.0195,2.42909302 11.00456,0.59544186 13.72732,0.59544186 C14.35598,0.59544186 14.72148,0.647930233 15.24694,0.752046512 L15.24694,6.83037209 C14.72148,6.72453488 14.14614,6.62127907 13.36096,6.62127907 C10.27098,6.62127907 8.17774,8.61153488 7.60068,11.4932326 C7.49576,12.0706047 7.3917,12.7503721 7.3917,13.4852093 L7.3917,26.688186 L0.9503,26.688186 L0.9503,9.39713953" id="path-4"></path>
        <linearGradient x1="-193.460604%" y1="50%" x2="98.2225648%" y2="50%" id="linearGradient-6">
            <stop stop-color="#A37DAB" offset="0%"></stop>
            <stop stop-color="#815793" offset="100%"></stop>
        </linearGradient>
    </defs>
    <g id="Page-1" stroke="none" stroke-width="1" fill="none" fill-rule="evenodd">
        <g id="Group-56-Copy" transform="translate(3.000000, 3.000000)">
            <g id="Group-10" transform="translate(22.000000, 26.000000)">
                <g id="Group-51">
                    <mask id="mask-2" fill="white">
                        <use xlink:href="#path-1"></use>
                    </mask>
                    <g id="Clip-50"></g>
                    <path d="M6.4758,17.7625814 C7.26098,17.9725349 8.3076,18.0241628 9.61824,18.0241628 C14.4351,18.0241628 17.3677,15.6673488 17.3677,11.5276512 C17.3677,7.59790698 14.64408,5.50267442 10.19358,5.50267442 C8.41252,5.50267442 7.15692,5.65927907 6.4758,5.81674419 L6.4758,17.7625814 Z M0.086,1.31048837 C2.3908,0.89144186 5.58656,0.577372093 9.933,0.577372093 C14.64408,0.577372093 18.10042,1.57293023 20.3519,3.45906977 C22.44772,5.18774419 23.8091,7.96446512 23.8091,11.2652093 C23.8091,14.6184419 22.76162,17.3960233 20.77072,19.2821628 C18.2062,21.8497907 14.17366,23.0535814 9.61824,23.0535814 C8.41252,23.0535814 7.31344,23.0019535 6.4758,22.8444884 L6.4758,36.1533023 L0.086,36.1533023 L0.086,1.31048837 Z" id="Fill-49" fill="url(#linearGradient-3)" mask="url(#mask-2)"></path>
                </g>
                <g id="Group-54" transform="translate(27.520000, 9.465116)">
                    <mask id="mask-5" fill="white">
                        <use xlink:href="#path-4"></use>
                    </mask>
                    <g id="Clip-53"></g>
                    <path d="M0.9503,9.39713953 C0.9503,5.93893023 0.89698,3.47713953 0.74132,1.17195349 L6.34508,1.17195349 L6.5532,6.04476744 L6.76304,6.04476744 C8.0195,2.42909302 11.00456,0.59544186 13.72732,0.59544186 C14.35598,0.59544186 14.72148,0.647930233 15.24694,0.752046512 L15.24694,6.83037209 C14.72148,6.72453488 14.14614,6.62127907 13.36096,6.62127907 C10.27098,6.62127907 8.17774,8.61153488 7.60068,11.4932326 C7.49576,12.0706047 7.3917,12.7503721 7.3917,13.4852093 L7.3917,26.688186 L0.9503,26.688186 L0.9503,9.39713953" id="Fill-52" fill="url(#linearGradient-6)" mask="url(#mask-5)"></path>
                </g>
            </g>
            <circle id="Oval-Copy-3" stroke="#936CA0" stroke-width="5" fill-rule="nonzero" cx="44" cy="44" r="44"></circle>
        </g>
    </g>
</svg>