<?xml version="1.0" encoding="UTF-8"?>
<svg width="94px" height="94px" viewBox="0 0 94 94" version="1.1" xmlns="http://www.w3.org/2000/svg" xmlns:xlink="http://www.w3.org/1999/xlink">
    <!-- Generator: Sketch 52.6 (67491) - http://www.bohemiancoding.com/sketch -->
    <title>Group 45 Copy</title>
    <desc>Created with Sketch.</desc>
    <defs>
        <path d="M2.17727419,28.7657091 C4.25966129,29.9612182 7.3823871,31.0029091 10.6615484,31.0029091 C14.7741774,31.0029091 17.0634355,29.0767636 17.0634355,26.2148909 C17.0634355,23.5623818 15.2939194,22.0011273 10.8179839,20.3877455 C5.04012903,18.3060727 1.34466129,15.2365455 1.34466129,10.1887455 C1.34466129,4.46414545 6.13346774,0.094 13.7329839,0.094 C17.5327419,0.094 20.3434516,0.927181818 22.1642581,1.86376364 L20.6033226,7.01581818 C19.3544032,6.33816364 16.9078548,5.34945455 13.6286935,5.34945455 C9.56820968,5.34945455 7.79954839,7.53538182 7.79954839,9.56407273 C7.79954839,12.2704182 9.82979032,13.5197636 14.5134516,15.3416545 C20.6033226,17.6292727 23.5704677,20.6996545 23.5704677,25.7466 C23.5704677,31.3660909 19.3031129,36.3096364 10.2452419,36.3096364 C6.54977419,36.3096364 2.69787097,35.2166727 0.771919355,34.0741455 L2.17727419,28.7657091" id="path-1"></path>
        <linearGradient x1="2.6584177%" y1="49.9976404%" x2="213.707537%" y2="49.9976404%" id="linearGradient-3">
            <stop stop-color="#4BB8B1" offset="0%"></stop>
            <stop stop-color="#43B5A2" offset="100%"></stop>
        </linearGradient>
        <path d="M18.2875645,11.1449818 C18.2875645,10.5707273 18.2337097,9.94605455 18.0772742,9.42734545 C17.4010968,7.08589091 15.5794355,5.31527273 12.873871,5.31527273 C9.28098387,5.31527273 6.62670968,8.43778182 6.62670968,13.5881273 C6.62670968,17.9078545 8.81253226,21.3935455 12.820871,21.3935455 C15.216129,21.3935455 17.2968065,19.8331455 18.0259839,17.5438182 C18.1824194,16.8670182 18.2875645,15.9825636 18.2875645,15.2544909 L18.2875645,11.1449818 Z M24.6894516,22.6437455 C24.6894516,27.9513273 23.5961129,31.7497818 20.9409839,34.1425091 C18.2875645,36.4831091 14.6425323,37.2120364 11.1547903,37.2120364 C7.92862903,37.2120364 4.49303226,36.5360909 2.30635484,35.1824909 L3.71170968,30.3432 C5.32564516,31.2806364 8.03206452,32.2684909 11.1026452,32.2684909 C15.2674194,32.2684909 18.391,30.0842727 18.391,24.6194545 L18.391,22.4352364 L18.2875645,22.4352364 C16.8292097,24.6741455 14.2270806,26.1815636 10.8949194,26.1815636 C4.59646774,26.1815636 0.119677419,20.9773818 0.119677419,13.7974909 C0.119677419,5.47165455 5.53422581,0.423854545 11.6240968,0.423854545 C15.476,0.423854545 17.7652581,2.29787273 18.9637419,4.37869091 L19.0680323,4.37869091 L19.3270484,0.998109091 L24.8971774,0.998109091 C24.7928871,2.71403636 24.6894516,4.79570909 24.6894516,8.2814 L24.6894516,22.6437455 Z" id="path-4"></path>
        <linearGradient x1="-105.326893%" y1="50%" x2="88.8701052%" y2="50%" id="linearGradient-6">
            <stop stop-color="#4BB8B1" offset="0%"></stop>
            <stop stop-color="#43B5A2" offset="100%"></stop>
        </linearGradient>
    </defs>
    <g id="Page-1" stroke="none" stroke-width="1" fill="none" fill-rule="evenodd">
        <g id="Group-45-Copy" transform="translate(3.000000, 3.000000)">
            <g id="Group-22" transform="translate(18.000000, 24.000000)">
                <g id="Group-261">
                    <mask id="mask-2" fill="white">
                        <use xlink:href="#path-1"></use>
                    </mask>
                    <g id="Clip-260"></g>
                    <path d="M2.17727419,28.7657091 C4.25966129,29.9612182 7.3823871,31.0029091 10.6615484,31.0029091 C14.7741774,31.0029091 17.0634355,29.0767636 17.0634355,26.2148909 C17.0634355,23.5623818 15.2939194,22.0011273 10.8179839,20.3877455 C5.04012903,18.3060727 1.34466129,15.2365455 1.34466129,10.1887455 C1.34466129,4.46414545 6.13346774,0.094 13.7329839,0.094 C17.5327419,0.094 20.3434516,0.927181818 22.1642581,1.86376364 L20.6033226,7.01581818 C19.3544032,6.33816364 16.9078548,5.34945455 13.6286935,5.34945455 C9.56820968,5.34945455 7.79954839,7.53538182 7.79954839,9.56407273 C7.79954839,12.2704182 9.82979032,13.5197636 14.5134516,15.3416545 C20.6033226,17.6292727 23.5704677,20.6996545 23.5704677,25.7466 C23.5704677,31.3660909 19.3031129,36.3096364 10.2452419,36.3096364 C6.54977419,36.3096364 2.69787097,35.2166727 0.771919355,34.0741455 L2.17727419,28.7657091" id="Fill-259" fill="url(#linearGradient-3)" mask="url(#mask-2)"></path>
                </g>
                <g id="Group-266" transform="translate(27.354839, 9.400000)">
                    <mask id="mask-5" fill="white">
                        <use xlink:href="#path-4"></use>
                    </mask>
                    <g id="Clip-265"></g>
                    <path d="M18.2875645,11.1449818 C18.2875645,10.5707273 18.2337097,9.94605455 18.0772742,9.42734545 C17.4010968,7.08589091 15.5794355,5.31527273 12.873871,5.31527273 C9.28098387,5.31527273 6.62670968,8.43778182 6.62670968,13.5881273 C6.62670968,17.9078545 8.81253226,21.3935455 12.820871,21.3935455 C15.216129,21.3935455 17.2968065,19.8331455 18.0259839,17.5438182 C18.1824194,16.8670182 18.2875645,15.9825636 18.2875645,15.2544909 L18.2875645,11.1449818 Z M24.6894516,22.6437455 C24.6894516,27.9513273 23.5961129,31.7497818 20.9409839,34.1425091 C18.2875645,36.4831091 14.6425323,37.2120364 11.1547903,37.2120364 C7.92862903,37.2120364 4.49303226,36.5360909 2.30635484,35.1824909 L3.71170968,30.3432 C5.32564516,31.2806364 8.03206452,32.2684909 11.1026452,32.2684909 C15.2674194,32.2684909 18.391,30.0842727 18.391,24.6194545 L18.391,22.4352364 L18.2875645,22.4352364 C16.8292097,24.6741455 14.2270806,26.1815636 10.8949194,26.1815636 C4.59646774,26.1815636 0.119677419,20.9773818 0.119677419,13.7974909 C0.119677419,5.47165455 5.53422581,0.423854545 11.6240968,0.423854545 C15.476,0.423854545 17.7652581,2.29787273 18.9637419,4.37869091 L19.0680323,4.37869091 L19.3270484,0.998109091 L24.8971774,0.998109091 C24.7928871,2.71403636 24.6894516,4.79570909 24.6894516,8.2814 L24.6894516,22.6437455 Z" id="Fill-264" fill="url(#linearGradient-6)" mask="url(#mask-5)"></path>
                </g>
            </g>
            <circle id="Oval-Copy-9" stroke="#45B6A6" stroke-width="5" fill-rule="nonzero" cx="44" cy="44" r="44"></circle>
        </g>
    </g>
</svg>